<?xml version="1.0" encoding="utf-8" standalone="yes" ?>
<!DOCTYPE svg PUBLIC "-//W3C//DTD SVG 1.0//EN" "http://www.w3.org/TR/2001/REC-SVG-20010904/DTD/svg10.dtd">
<svg viewBox="0 0 1080 720" xmlns="http://www.w3.org/2000/svg" xmlns:xlink="http://www.w3.org/1999/xlink">
  <style type="text/css">
  <![CDATA[
    .stA {fill:mediumorchid;fill-opacity:0.6;stroke:mediumorchid;stroke-width:2.0}
    .stB {fill:dodgerblue;fill-opacity:0.6;stroke:dodgerblue;stroke-width:2.0}
    .stC {fill:mediumturquoise;fill-opacity:0.6;stroke:mediumturquoise;stroke-width:2.0}
    .stD {fill:limegreen;fill-opacity:0.6;stroke:limegreen;stroke-width:2.0}
    .stE {fill:gold;fill-opacity:0.6;stroke:gold;stroke-width:2.0}
    .stF {fill:red;fill-opacity:0.6;stroke:red;stroke-width:2.0}
  ]]>
  </style>
  <g  class="stA">
    <rect x="0" y="0" width="1080" height="720" />
  </g>
  <g  class="stC">
    <rect x="290" y="90" width="80" height="100" />
    <rect x="390" y="90" width="80" height="100" />
    <rect x="290" y="220" width="80" height="100" />
    <rect x="390" y="220" width="80" height="100" />
    <rect x="290" y="350" width="80" height="100" />
    <rect x="390" y="350" width="80" height="100" />
    <rect x="510" y="540" width="80" height="100" />
    <rect x="555" y="480" width="80" height="100" />
    <rect x="600" y="420" width="80" height="100" />
  </g>
  <g  class="stD">
    <rect x="60" y="480" width="300" height="160" />
    <rect x="510" y="90" width="300" height="160" />
    <rect x="720" y="330" width="300" height="160" />
  </g>
  <g  class="stE">
    <rect x="410" y="480" width="60" height="40" />
    <rect x="410" y="540" width="60" height="40" />
    <rect x="410" y="600" width="60" height="40" />
    <rect x="690" y="600" width="60" height="40" />
    <rect x="720" y="600" width="60" height="40" />
    <rect x="750" y="600" width="60" height="40" />
    <rect x="810" y="560" width="60" height="40" />
    <rect x="840" y="560" width="60" height="40" />
    <rect x="870" y="560" width="60" height="40" />
    <rect x="930" y="600" width="60" height="40" />
    <rect x="960" y="600" width="60" height="40" />
    <rect x="960" y="90" width="60" height="40" />
    <rect x="960" y="150" width="60" height="40" />
    <rect x="960" y="210" width="60" height="40" />
    <rect x="300" y="100" width="60" height="40" />
    <rect x="400" y="100" width="60" height="40" />
    <rect x="300" y="230" width="60" height="40" />
    <rect x="400" y="230" width="60" height="40" />
    <rect x="300" y="360" width="60" height="40" />
    <rect x="400" y="360" width="60" height="40" />
    <rect x="520" y="550" width="60" height="40" />
    <rect x="565" y="490" width="60" height="40" />
    <rect x="610" y="430" width="60" height="40" />
  </g>
  <g  class="stB">
    <rect x="60" y="90" width="150" height="50" />
    <rect x="110" y="140" width="150" height="50" />
    <rect x="60" y="220" width="150" height="50" />
    <rect x="110" y="270" width="150" height="50" />
    <rect x="60" y="350" width="150" height="50" />
    <rect x="110" y="400" width="150" height="50" />
    <rect x="660" y="305" width="150" height="50" />
    <rect x="210" y="500" width="150" height="50" />
    <rect x="210" y="570" width="150" height="50" />
    <rect x="660" y="110" width="150" height="50" />
    <rect x="660" y="180" width="150" height="50" />
    <rect x="870" y="350" width="150" height="50" />
    <rect x="870" y="420" width="150" height="50" />
  </g>
  <g  class="stF">
    <rect x="310" y="95" width="30" height="10" />
    <rect x="310" y="135" width="30" height="10" />
    <rect x="310" y="155" width="30" height="10" />
    <rect x="310" y="175" width="30" height="10" />
    <rect x="410" y="95" width="30" height="10" />
    <rect x="410" y="135" width="30" height="10" />
    <rect x="410" y="155" width="30" height="10" />
    <rect x="410" y="175" width="30" height="10" />
    <rect x="310" y="225" width="30" height="10" />
    <rect x="310" y="265" width="30" height="10" />
    <rect x="310" y="285" width="30" height="10" />
    <rect x="310" y="305" width="30" height="10" />
    <rect x="410" y="225" width="30" height="10" />
    <rect x="410" y="265" width="30" height="10" />
    <rect x="410" y="285" width="30" height="10" />
    <rect x="410" y="305" width="30" height="10" />
    <rect x="310" y="355" width="30" height="10" />
    <rect x="310" y="395" width="30" height="10" />
    <rect x="310" y="415" width="30" height="10" />
    <rect x="310" y="435" width="30" height="10" />
    <rect x="410" y="355" width="30" height="10" />
    <rect x="410" y="395" width="30" height="10" />
    <rect x="410" y="415" width="30" height="10" />
    <rect x="410" y="435" width="30" height="10" />
    <rect x="530" y="545" width="30" height="10" />
    <rect x="530" y="585" width="30" height="10" />
    <rect x="530" y="605" width="30" height="10" />
    <rect x="530" y="625" width="30" height="10" />
    <rect x="575" y="485" width="30" height="10" />
    <rect x="575" y="525" width="30" height="10" />
    <rect x="575" y="545" width="30" height="10" />
    <rect x="575" y="565" width="30" height="10" />
    <rect x="620" y="425" width="30" height="10" />
    <rect x="620" y="465" width="30" height="10" />
    <rect x="620" y="485" width="30" height="10" />
    <rect x="620" y="505" width="30" height="10" />
    <rect x="80" y="570" width="30" height="10" />
    <rect x="120" y="570" width="30" height="10" />
    <rect x="160" y="570" width="30" height="10" />
    <rect x="80" y="590" width="30" height="10" />
    <rect x="120" y="590" width="30" height="10" />
    <rect x="160" y="590" width="30" height="10" />
    <rect x="80" y="610" width="30" height="10" />
    <rect x="120" y="610" width="30" height="10" />
    <rect x="160" y="610" width="30" height="10" />
    <rect x="530" y="180" width="30" height="10" />
    <rect x="570" y="180" width="30" height="10" />
    <rect x="610" y="180" width="30" height="10" />
    <rect x="530" y="200" width="30" height="10" />
    <rect x="570" y="200" width="30" height="10" />
    <rect x="610" y="200" width="30" height="10" />
    <rect x="530" y="220" width="30" height="10" />
    <rect x="570" y="220" width="30" height="10" />
    <rect x="610" y="220" width="30" height="10" />
    <rect x="740" y="420" width="30" height="10" />
    <rect x="780" y="420" width="30" height="10" />
    <rect x="820" y="420" width="30" height="10" />
    <rect x="740" y="440" width="30" height="10" />
    <rect x="780" y="440" width="30" height="10" />
    <rect x="820" y="440" width="30" height="10" />
    <rect x="740" y="460" width="30" height="10" />
    <rect x="780" y="460" width="30" height="10" />
    <rect x="820" y="460" width="30" height="10" />
    <rect x="420" y="495" width="30" height="10" />
    <rect x="420" y="555" width="30" height="10" />
    <rect x="420" y="615" width="30" height="10" />
    <rect x="700" y="615" width="30" height="10" />
    <rect x="730" y="615" width="30" height="10" />
    <rect x="760" y="615" width="30" height="10" />
    <rect x="820" y="575" width="30" height="10" />
    <rect x="850" y="575" width="30" height="10" />
    <rect x="880" y="575" width="30" height="10" />
    <rect x="940" y="615" width="30" height="10" />
    <rect x="970" y="615" width="30" height="10" />
    <rect x="970" y="105" width="30" height="10" />
    <rect x="970" y="165" width="30" height="10" />
    <rect x="970" y="225" width="30" height="10" />
    <rect x="310" y="115" width="30" height="10" />
    <rect x="410" y="115" width="30" height="10" />
    <rect x="310" y="245" width="30" height="10" />
    <rect x="410" y="245" width="30" height="10" />
    <rect x="310" y="375" width="30" height="10" />
    <rect x="410" y="375" width="30" height="10" />
    <rect x="530" y="565" width="30" height="10" />
    <rect x="575" y="505" width="30" height="10" />
    <rect x="620" y="445" width="30" height="10" />
  </g>
</svg>